<svg xmlns="http://www.w3.org/2000/svg" width="34" height="34" fill="none" viewBox="0 0 34 34"><path fill="#fff" d="M21.25 8.53333C21.25 9.71111 21.0286 10.8167 20.5859 11.85C20.1432 12.8833 19.54 13.7889 18.7764 14.5667C18.0127 15.3444 17.1107 15.9556 16.0703 16.4C15.0299 16.8444 13.9232 17.0667 12.75 17.0667C11.776 17.0667 10.8353 17.1944 9.92773 17.45C9.02018 17.7056 8.1735 18.0611 7.3877 18.5167C6.60189 18.9722 5.88802 19.5278 5.24609 20.1833C4.60417 20.8389 4.05078 21.5611 3.58594 22.35C3.12109 23.1389 2.76139 23.9889 2.50684 24.9C2.25228 25.8111 2.125 26.7556 2.125 27.7333H0C0 26.3889 0.193685 25.1 0.581055 23.8667C0.968424 22.6333 1.52181 21.5 2.24121 20.4667C2.96061 19.4333 3.82389 18.5111 4.83105 17.7C5.83822 16.8889 6.96712 16.2444 8.21777 15.7667C7.59798 15.3667 7.0446 14.9056 6.55762 14.3833C6.07064 13.8611 5.6556 13.2889 5.3125 12.6667C4.9694 12.0444 4.70931 11.3889 4.53223 10.7C4.35514 10.0111 4.26107 9.28889 4.25 8.53333C4.25 7.35556 4.47135 6.25 4.91406 5.21667C5.35677 4.18333 5.95996 3.27778 6.72363 2.5C7.4873 1.72222 8.38932 1.11111 9.42969 0.666667C10.4701 0.222222 11.5768 0 12.75 0C13.9232 0 15.0244 0.222222 16.0537 0.666667C17.083 1.11111 17.985 1.71667 18.7598 2.48333C19.5345 3.25 20.1432 4.15556 20.5859 5.2C21.0286 6.24444 21.25 7.35556 21.25 8.53333ZM12.75 14.9333C13.6243 14.9333 14.4489 14.7667 15.2236 14.4333C15.9984 14.1 16.6735 13.6444 17.249 13.0667C17.8245 12.4889 18.2839 11.8111 18.627 11.0333C18.9701 10.2556 19.1361 9.42222 19.125 8.53333C19.125 7.65556 18.959 6.82778 18.627 6.05C18.2949 5.27222 17.8411 4.59444 17.2656 4.01667C16.6901 3.43889 16.0094 2.97778 15.2236 2.63333C14.4378 2.28889 13.6133 2.12222 12.75 2.13333C11.8646 2.13333 11.04 2.3 10.2764 2.63333C9.5127 2.96667 8.83757 3.42222 8.25098 4C7.66439 4.57778 7.20508 5.26111 6.87305 6.05C6.54102 6.83889 6.375 7.66667 6.375 8.53333C6.375 9.42222 6.54102 10.25 6.87305 11.0167C7.20508 11.7833 7.65885 12.4611 8.23438 13.05C8.8099 13.6389 9.48503 14.1 10.2598 14.4333C11.0345 14.7667 11.8646 14.9333 12.75 14.9333ZM34 17.65V23.0667C34 24.2333 33.7897 25.3333 33.3691 26.3667C32.9486 27.4 32.3896 28.3611 31.6924 29.25C30.9951 30.1389 30.1927 30.9389 29.2852 31.65C28.3776 32.3611 27.4424 32.9722 26.4795 33.4833L25.5 34L24.5039 33.4833C23.541 32.9833 22.6113 32.3778 21.7148 31.6667C20.8184 30.9556 20.016 30.15 19.3076 29.25C18.5993 28.35 18.0404 27.3889 17.6309 26.3667C17.2214 25.3444 17.0111 24.2444 17 23.0667V17.65C17.3874 17.65 17.8024 17.6556 18.2451 17.6667C18.6878 17.6778 19.1361 17.6722 19.5898 17.65C20.0436 17.6278 20.4808 17.5722 20.9014 17.4833C21.3219 17.3944 21.7148 17.2389 22.0801 17.0167C22.6335 16.6944 23.1813 16.4611 23.7236 16.3167C24.266 16.1722 24.8581 16.0944 25.5 16.0833C26.153 16.0833 26.7507 16.1611 27.293 16.3167C27.8353 16.4722 28.3887 16.7111 28.9531 17.0333C29.2962 17.2333 29.6781 17.3778 30.0986 17.4667C30.5192 17.5556 30.9564 17.6167 31.4102 17.65C31.8639 17.6833 32.3122 17.6889 32.7549 17.6667C33.1976 17.6444 33.6126 17.6389 34 17.65ZM31.875 23.0667V19.7833C31.1445 19.7833 30.4417 19.7167 29.7666 19.5833C29.0915 19.45 28.4385 19.2 27.8076 18.8333C27.4313 18.6111 27.0661 18.4556 26.7119 18.3667C26.3577 18.2778 25.9538 18.2278 25.5 18.2167C25.0794 18.2167 24.6865 18.2611 24.3213 18.35C23.9561 18.4389 23.5908 18.5944 23.2256 18.8167C22.5837 19.1833 21.9251 19.4333 21.25 19.5667C20.5749 19.7 19.8665 19.7722 19.125 19.7833V23.0667C19.125 24.0222 19.3076 24.9222 19.6729 25.7667C20.0381 26.6111 20.5251 27.4 21.1338 28.1333C21.7425 28.8667 22.4232 29.5222 23.1758 30.1C23.9284 30.6778 24.7031 31.1778 25.5 31.6C26.2747 31.1889 27.0439 30.6944 27.8076 30.1167C28.5713 29.5389 29.252 28.8833 29.8496 28.15C30.4473 27.4167 30.9342 26.6278 31.3105 25.7833C31.6868 24.9389 31.875 24.0333 31.875 23.0667Z" opacity=".56"/></svg>