<svg xmlns="http://www.w3.org/2000/svg" width="34" height="33" fill="none" viewBox="0 0 34 33"><path fill="#fff" d="M25.5 22.6875H28.6875V24.75H23.375V18.5625H25.5V22.6875ZM21.25 8.25H4.25V6.1875H21.25V8.25ZM24.4375 14.4375C25.7546 14.4375 26.9941 14.6792 28.1562 15.1626C29.3184 15.646 30.3311 16.312 31.1943 17.1606C32.0576 18.0093 32.7383 18.9922 33.2363 20.1094C33.7344 21.2266 33.9889 22.4297 34 23.7188C34 24.9971 33.751 26.2002 33.2529 27.3281C32.7549 28.4561 32.0687 29.439 31.1943 30.2769C30.32 31.1147 29.3073 31.7754 28.1562 32.2588C27.0052 32.7422 25.7656 32.9893 24.4375 33C23.1204 33 21.8809 32.7583 20.7188 32.2749C19.5566 31.7915 18.5439 31.1255 17.6807 30.2769C16.8174 29.4282 16.1367 28.4453 15.6387 27.3281C15.1406 26.2109 14.8861 25.0078 14.875 23.7188C14.875 22.4404 15.124 21.2373 15.6221 20.1094C16.1201 18.9814 16.8063 17.9985 17.6807 17.1606C18.555 16.3228 19.5677 15.6621 20.7188 15.1787C21.8698 14.6953 23.1094 14.4482 24.4375 14.4375ZM24.4375 30.9375C25.4668 30.9375 26.4297 30.7495 27.3262 30.3735C28.2227 29.9976 29.0085 29.4819 29.6836 28.8267C30.3587 28.1714 30.89 27.4087 31.2773 26.5386C31.6647 25.6685 31.8639 24.7285 31.875 23.7188C31.875 22.7197 31.6813 21.7852 31.2939 20.915C30.9066 20.0449 30.3753 19.2822 29.7002 18.627C29.0251 17.9717 28.2393 17.4561 27.3428 17.0801C26.4463 16.7041 25.4779 16.5107 24.4375 16.5C23.4082 16.5 22.4453 16.688 21.5488 17.064C20.6523 17.4399 19.8665 17.9556 19.1914 18.6108C18.5163 19.2661 17.985 20.0288 17.5977 20.8989C17.2103 21.769 17.0111 22.709 17 23.7188C17 24.7178 17.1937 25.6523 17.5811 26.5225C17.9684 27.3926 18.4997 28.1553 19.1748 28.8105C19.8499 29.4658 20.6357 29.9814 21.5322 30.3574C22.4287 30.7334 23.3971 30.9268 24.4375 30.9375ZM19.3574 12.375C18.151 12.8906 17.0443 13.5781 16.0371 14.4375H4.25V12.375H19.3574ZM12.8662 18.5625C12.7113 18.8955 12.5729 19.2339 12.4512 19.5776C12.3294 19.9214 12.2132 20.2705 12.1025 20.625H4.25V18.5625H12.8662ZM4.25 24.75H11.7373C11.7705 25.0938 11.8148 25.4375 11.8701 25.7812C11.9255 26.125 12.0029 26.4688 12.1025 26.8125H4.25V24.75ZM14.1113 30.9375C14.6647 31.7002 15.3066 32.3877 16.0371 33H0V0H25.5V11.3921L24.9688 11.3599C24.7917 11.3491 24.6146 11.3438 24.4375 11.3438C24.2604 11.3438 24.0833 11.3491 23.9062 11.3599C23.7292 11.3706 23.5521 11.3813 23.375 11.3921V2.0625H2.125V30.9375H14.1113Z" opacity=".56"/></svg>