<svg xmlns="http://www.w3.org/2000/svg" width="26" height="8" fill="none" viewBox="0 0 26 8"><path fill="#878787" d="M22.375 0.25C22.8722 0.25 23.341 0.341146 23.7816 0.523438C24.2221 0.705729 24.606 0.957899 24.9333 1.27995C25.2605 1.602 25.5186 1.97266 25.7074 2.39193C25.8962 2.8112 25.9937 3.26389 26 3.75C26 4.23004 25.9056 4.68273 25.7168 5.10807C25.528 5.53342 25.2668 5.90408 24.9333 6.22005C24.5997 6.53603 24.2158 6.78516 23.7816 6.96745C23.3473 7.14974 22.8785 7.24392 22.375 7.25C21.8778 7.25 21.409 7.15885 20.9684 6.97656C20.5279 6.79427 20.144 6.5421 19.8167 6.22005C19.4895 5.898 19.2314 5.52734 19.0426 5.10807C18.8538 4.6888 18.7563 4.23611 18.75 3.75C18.75 3.26997 18.8444 2.81727 19.0332 2.39193C19.222 1.96658 19.4832 1.59592 19.8167 1.27995C20.1503 0.963976 20.5342 0.714844 20.9684 0.532552C21.4027 0.35026 21.8715 0.256076 22.375 0.25Z"/><path fill="#878787" d="M13 0.25C13.48 0.25 13.9327 0.341146 14.3581 0.523438C14.7834 0.705729 15.1541 0.957899 15.4701 1.27995C15.786 1.602 16.0352 1.97266 16.2174 2.39193C16.3997 2.8112 16.4939 3.26389 16.5 3.75C16.5 4.23004 16.4089 4.68273 16.2266 5.10807C16.0443 5.53342 15.7921 5.90408 15.4701 6.22005C15.148 6.53603 14.7773 6.78516 14.3581 6.96745C13.9388 7.14974 13.4861 7.24392 13 7.25C12.52 7.25 12.0673 7.15885 11.6419 6.97656C11.2166 6.79427 10.8459 6.5421 10.5299 6.22005C10.214 5.898 9.96484 5.52734 9.78255 5.10807C9.60026 4.6888 9.50608 4.23611 9.5 3.75C9.5 3.26997 9.59115 2.81727 9.77344 2.39193C9.95573 1.96658 10.2079 1.59592 10.5299 1.27995C10.852 0.963976 11.2227 0.714844 11.6419 0.532552C12.0612 0.35026 12.5139 0.256076 13 0.25Z"/><path fill="#878787" d="M3.625 0C4.12218 0 4.59104 0.0944011 5.03158 0.283203C5.47212 0.472005 5.85601 0.733182 6.18327 1.06673C6.51053 1.40028 6.76856 1.78418 6.95736 2.21843C7.14616 2.65267 7.24371 3.12153 7.25 3.625C7.25 4.12218 7.1556 4.59104 6.9668 5.03158C6.778 5.47212 6.51682 5.85601 6.18327 6.18327C5.84972 6.51053 5.46582 6.76856 5.03158 6.95736C4.59733 7.14616 4.12847 7.24371 3.625 7.25C3.12782 7.25 2.65896 7.1556 2.21843 6.9668C1.77789 6.778 1.39399 6.51682 1.06673 6.18327C0.739475 5.84972 0.481445 5.46582 0.292643 5.03158C0.103841 4.59733 0.0062934 4.12847 0 3.625C0 3.12782 0.0944011 2.65896 0.283203 2.21843C0.472005 1.77789 0.733182 1.39399 1.06673 1.06673C1.40028 0.739475 1.78418 0.481445 2.21843 0.292643C2.65267 0.103841 3.12153 0.0062934 3.625 0Z"/></svg>