<svg width="34" height="34" viewBox="0 0 34 34" fill="none" xmlns="http://www.w3.org/2000/svg">
<path opacity="0.56" d="M27.625 2.125H34V10.625H2.125V29.75H17V31.875H0V2.125H6.375V0H8.5V2.125H25.5V0H27.625V2.125ZM31.875 8.5V4.25H27.625V6.375H25.5V4.25H8.5V6.375H6.375V4.25H2.125V8.5H31.875ZM33.4854 12.75L29.5342 19.125H34L22.8438 34H18.4609L22.7109 25.5H18.4609L24.8857 12.75H33.4854ZM29.75 21.25H25.7158L29.667 14.875H26.1973L21.9141 23.375H26.1641L22.1631 31.377L29.75 21.25Z" fill="white"/>
</svg>
